# xmcd
#
# Track frame offsets: 
#        150
#        14057
#        29068
#        44488
#        62072
#        75021
#        89529
#        106642
#        120498
#        145559
#        160500
#        179663
#
# Disc length: 2572 seconds
#
# Revision: 0
# Processed by: cddbd v1.5.2PL0 Copyright (c) Steve Scherf et al.
# Submitted via: ExactAudioCopy v0.95b4
#
DISCID=920a0a0c
DTITLE=La Mississippi Blues Band - Antología
DYEAR=2000
DGENRE=Blues
TTITLE0=Blues del Equipaje
TTITLE1=Matadero
TTITLE2=Café Madrid
TTITLE3=Boogie de la Ruta
TTITLE4=Vamo y Vamo
TTITLE5=Niño Bien
TTITLE6=Por Fin Te Fuiste Mabel
TTITLE7=Mala Transa
TTITLE8=Honey Bee
TTITLE9=Un Poco Más
TTITLE10=Blues de Juan
TTITLE11=Un Trago Para Ver Mejor
EXTD=
EXTT0=
EXTT1=
EXTT2=
EXTT3=
EXTT4=
EXTT5=
EXTT6=
EXTT7=
EXTT8=
EXTT9=
EXTT10=
EXTT11=
PLAYORDER=
